#Comment line ignore any data following # character 
#Hierarchical Translation and Rotation (.htr) file 
[Header]	
#Header keywords are followed by a single value 
FileType HTR		#Single word string
DataType HTRS		#Translation followed by rotation and scale data
FileVersion 1		#integer
NumSegments 84		#integer
NumFrames 2		#integer
DataFrameRate 30		#integer, data frame rate in this file
EulerRotationOrder ZYX
CalibrationUnits mm
RotationUnits Degrees
GlobalAxisofGravity Y
BoneLengthAxis Y
ScaleFactor 1.00
[SegmentNames&Hierarchy]
#CHILD	PARENT
MASTER GLOBAL
root MASTER
chest root
L_mid_tent01 root
R_mid_tent01 root
spine01 root
Bip01_Neck chest
L_humerus chest
R_humerus chest
weapon_bone chest
Bip01_Head Bip01_Neck
eye_left_bone Bip01_Head
eye_right_bone Bip01_Head
L_forearm L_humerus
L_front_hand L_forearm
L_weapon_bone L_forearm
L_front_hand01_01 L_front_hand
L_front_hand02_01 L_front_hand
L_front_hand03_01 L_front_hand
L_front_hand01_02 L_front_hand01_01
L_front_hand02_02 L_front_hand02_01
L_front_hand03_02 L_front_hand03_01
R_forearm R_humerus
R_front_hand R_forearm
R_weapon_bone R_forearm
R_front_hand01_01 R_front_hand
R_front_hand02_01 R_front_hand
R_front_hand03_01 R_front_hand
R_front_hand01_02 R_front_hand01_01
R_front_hand02_02 R_front_hand02_01
R_front_hand03_02 R_front_hand03_01
null_rope01_connect L_mid_tent01
Rope1_Seg01 null_rope01_connect
Rope1_Seg02 Rope1_Seg01
Rope1_Seg03 Rope1_Seg02
Rope1_Seg04 Rope1_Seg03
Rope1_Seg05 Rope1_Seg04
Rope1_Seg06 Rope1_Seg05
Rope1_Seg07 Rope1_Seg06
Rope1_Seg09 Rope1_Seg07
L_mid_hand01 Rope1_Seg09
L_mid_hand02 Rope1_Seg09
L_mid_hand03 Rope1_Seg09
null_rope02_connect R_mid_tent01
Rope2_Seg01 null_rope02_connect
Rope2_Seg02 Rope2_Seg01
Rope2_Seg03 Rope2_Seg02
Rope2_Seg04 Rope2_Seg03
Rope2_Seg05 Rope2_Seg04
Rope2_Seg06 Rope2_Seg05
Rope2_Seg07 Rope2_Seg06
Rope2_Seg09 Rope2_Seg07
R_mid_hand01 Rope2_Seg09
R_mid_hand02 Rope2_Seg09
R_mid_hand03 Rope2_Seg09
spine02 spine01
spine03 spine02
pelvis spine03
null_rope03_connect pelvis
null_rope04_connect pelvis
Rope3_Seg01 null_rope03_connect
Rope3_Seg02 Rope3_Seg01
Rope3_Seg03 Rope3_Seg02
Rope3_Seg04 Rope3_Seg03
Rope3_Seg05 Rope3_Seg04
Rope3_Seg06 Rope3_Seg05
Rope3_Seg07 Rope3_Seg06
Rope3_Seg08 Rope3_Seg07
Rope3_Seg09 Rope3_Seg08
R_rear_hand01 Rope3_Seg09
R_rear_hand02 Rope3_Seg09
R_rear_hand03 Rope3_Seg09
Rope4_Seg01 null_rope04_connect
Rope4_Seg02 Rope4_Seg01
Rope4_Seg03 Rope4_Seg02
Rope4_Seg04 Rope4_Seg03
Rope4_Seg05 Rope4_Seg04
Rope4_Seg06 Rope4_Seg05
Rope4_Seg07 Rope4_Seg06
Rope4_Seg08 Rope4_Seg07
Rope4_Seg09 Rope4_Seg08
L_rear_hand01 Rope4_Seg09
L_rear_hand02 Rope4_Seg09
L_rear_hand03 Rope4_Seg09
[BasePosition]
#SegmentName Tx, Ty, Tz, Rx, Ry, Rz, BoneLength
MASTER 0.000000 0.000000 0.000000 -90.000000 0.000000 0.000000 10.000000 
root 0.000000 0.000000 0.000000 0.000000 0.000000 0.000000 10.000000 
chest 0.000000 0.000000 0.000000 0.000000 0.000000 0.000000 10.000000 
L_mid_tent01 0.000000 0.000000 0.000000 0.000000 0.000000 0.000000 10.000000 
R_mid_tent01 0.000000 0.000000 0.000000 0.000000 0.000000 0.000000 10.000000 
spine01 0.000000 0.000000 0.000000 0.000000 0.000000 0.000000 10.000000 
Bip01_Neck 0.000000 0.000000 0.000000 0.000000 0.000000 0.000000 10.000000 
L_humerus 0.000000 0.000000 0.000000 0.000000 0.000000 0.000000 10.000000 
R_humerus 0.000000 0.000000 0.000000 0.000000 0.000000 0.000000 10.000000 
weapon_bone 0.000000 0.000000 0.000000 0.000000 0.000000 0.000000 10.000000 
Bip01_Head 0.000000 0.000000 0.000000 0.000000 0.000000 0.000000 10.000000 
eye_left_bone 0.000000 0.000000 0.000000 0.000000 0.000000 0.000000 10.000000 
eye_right_bone 0.000000 0.000000 0.000000 0.000000 0.000000 0.000000 10.000000 
L_forearm 0.000000 0.000000 0.000000 0.000000 0.000000 0.000000 10.000000 
L_front_hand 0.000000 0.000000 0.000000 0.000000 0.000000 0.000000 10.000000 
L_weapon_bone 0.000000 0.000000 0.000000 0.000000 0.000000 0.000000 10.000000 
L_front_hand01_01 0.000000 0.000000 0.000000 0.000000 0.000000 0.000000 10.000000 
L_front_hand02_01 0.000000 0.000000 0.000000 0.000000 0.000000 0.000000 10.000000 
L_front_hand03_01 0.000000 0.000000 0.000000 0.000000 0.000000 0.000000 10.000000 
L_front_hand01_02 0.000000 0.000000 0.000000 0.000000 0.000000 0.000000 10.000000 
L_front_hand02_02 0.000000 0.000000 0.000000 0.000000 0.000000 0.000000 10.000000 
L_front_hand03_02 0.000000 0.000000 0.000000 0.000000 0.000000 0.000000 10.000000 
R_forearm 0.000000 0.000000 0.000000 0.000000 0.000000 0.000000 10.000000 
R_front_hand 0.000000 0.000000 0.000000 0.000000 0.000000 0.000000 10.000000 
R_weapon_bone 0.000000 0.000000 0.000000 0.000000 0.000000 0.000000 10.000000 
R_front_hand01_01 0.000000 0.000000 0.000000 0.000000 0.000000 0.000000 10.000000 
R_front_hand02_01 0.000000 0.000000 0.000000 0.000000 0.000000 0.000000 10.000000 
R_front_hand03_01 0.000000 0.000000 0.000000 0.000000 0.000000 0.000000 10.000000 
R_front_hand01_02 0.000000 0.000000 0.000000 0.000000 0.000000 0.000000 10.000000 
R_front_hand02_02 0.000000 0.000000 0.000000 0.000000 0.000000 0.000000 10.000000 
R_front_hand03_02 0.000000 0.000000 0.000000 0.000000 0.000000 0.000000 10.000000 
null_rope01_connect 0.000000 0.000000 0.000000 0.000000 0.000000 0.000000 10.000000 
Rope1_Seg01 0.000000 0.000000 0.000000 0.000000 0.000000 0.000000 10.000000 
Rope1_Seg02 0.000000 0.000000 0.000000 0.000000 0.000000 0.000000 10.000000 
Rope1_Seg03 0.000000 0.000000 0.000000 0.000000 0.000000 0.000000 10.000000 
Rope1_Seg04 0.000000 0.000000 0.000000 0.000000 0.000000 0.000000 10.000000 
Rope1_Seg05 0.000000 0.000000 0.000000 0.000000 0.000000 0.000000 10.000000 
Rope1_Seg06 0.000000 0.000000 0.000000 0.000000 0.000000 0.000000 10.000000 
Rope1_Seg07 0.000000 0.000000 0.000000 0.000000 0.000000 0.000000 10.000000 
Rope1_Seg09 0.000000 0.000000 0.000000 0.000000 0.000000 0.000000 10.000000 
L_mid_hand01 0.000000 0.000000 0.000000 0.000000 0.000000 0.000000 10.000000 
L_mid_hand02 0.000000 0.000000 0.000000 0.000000 0.000000 0.000000 10.000000 
L_mid_hand03 0.000000 0.000000 0.000000 0.000000 0.000000 0.000000 10.000000 
null_rope02_connect 0.000000 0.000000 0.000000 0.000000 0.000000 0.000000 10.000000 
Rope2_Seg01 0.000000 0.000000 0.000000 0.000000 0.000000 0.000000 10.000000 
Rope2_Seg02 0.000000 0.000000 0.000000 0.000000 0.000000 0.000000 10.000000 
Rope2_Seg03 0.000000 0.000000 0.000000 0.000000 0.000000 0.000000 10.000000 
Rope2_Seg04 0.000000 0.000000 0.000000 0.000000 0.000000 0.000000 10.000000 
Rope2_Seg05 0.000000 0.000000 0.000000 0.000000 0.000000 0.000000 10.000000 
Rope2_Seg06 0.000000 0.000000 0.000000 0.000000 0.000000 0.000000 10.000000 
Rope2_Seg07 0.000000 0.000000 0.000000 0.000000 0.000000 0.000000 10.000000 
Rope2_Seg09 0.000000 0.000000 0.000000 0.000000 0.000000 0.000000 10.000000 
R_mid_hand01 0.000000 0.000000 0.000000 0.000000 0.000000 0.000000 10.000000 
R_mid_hand02 0.000000 0.000000 0.000000 0.000000 0.000000 0.000000 10.000000 
R_mid_hand03 0.000000 0.000000 0.000000 0.000000 0.000000 0.000000 10.000000 
spine02 0.000000 0.000000 0.000000 0.000000 0.000000 0.000000 10.000000 
spine03 0.000000 0.000000 0.000000 0.000000 0.000000 0.000000 10.000000 
pelvis 0.000000 0.000000 0.000000 0.000000 0.000000 0.000000 10.000000 
null_rope03_connect 0.000000 0.000000 0.000000 0.000000 0.000000 0.000000 10.000000 
null_rope04_connect 0.000000 0.000000 0.000000 0.000000 0.000000 0.000000 10.000000 
Rope3_Seg01 0.000000 0.000000 0.000000 0.000000 0.000000 0.000000 10.000000 
Rope3_Seg02 0.000000 0.000000 0.000000 0.000000 0.000000 0.000000 10.000000 
Rope3_Seg03 0.000000 0.000000 0.000000 0.000000 0.000000 0.000000 10.000000 
Rope3_Seg04 0.000000 0.000000 0.000000 0.000000 0.000000 0.000000 10.000000 
Rope3_Seg05 0.000000 0.000000 0.000000 0.000000 0.000000 0.000000 10.000000 
Rope3_Seg06 0.000000 0.000000 0.000000 0.000000 0.000000 0.000000 10.000000 
Rope3_Seg07 0.000000 0.000000 0.000000 0.000000 0.000000 0.000000 10.000000 
Rope3_Seg08 0.000000 0.000000 0.000000 0.000000 0.000000 0.000000 10.000000 
Rope3_Seg09 0.000000 0.000000 0.000000 0.000000 0.000000 0.000000 10.000000 
R_rear_hand01 0.000000 0.000000 0.000000 0.000000 0.000000 0.000000 10.000000 
R_rear_hand02 0.000000 0.000000 0.000000 0.000000 0.000000 0.000000 10.000000 
R_rear_hand03 0.000000 0.000000 0.000000 0.000000 0.000000 0.000000 10.000000 
Rope4_Seg01 0.000000 0.000000 0.000000 0.000000 0.000000 0.000000 10.000000 
Rope4_Seg02 0.000000 0.000000 0.000000 0.000000 0.000000 0.000000 10.000000 
Rope4_Seg03 0.000000 0.000000 0.000000 0.000000 0.000000 0.000000 10.000000 
Rope4_Seg04 0.000000 0.000000 0.000000 0.000000 0.000000 0.000000 10.000000 
Rope4_Seg05 0.000000 0.000000 0.000000 0.000000 0.000000 0.000000 10.000000 
Rope4_Seg06 0.000000 0.000000 0.000000 0.000000 0.000000 0.000000 10.000000 
Rope4_Seg07 0.000000 0.000000 0.000000 0.000000 0.000000 0.000000 10.000000 
Rope4_Seg08 0.000000 0.000000 0.000000 0.000000 0.000000 0.000000 10.000000 
Rope4_Seg09 0.000000 0.000000 0.000000 0.000000 0.000000 0.000000 10.000000 
L_rear_hand01 0.000000 0.000000 0.000000 0.000000 0.000000 0.000000 10.000000 
L_rear_hand02 0.000000 0.000000 0.000000 0.000000 0.000000 0.000000 10.000000 
L_rear_hand03 0.000000 0.000000 0.000000 0.000000 0.000000 0.000000 10.000000 
#Beginning of Data. Separated by tabs
#Fr	Tx	Ty	Tz	Rx	Ry	Rz	SF
[MASTER]
49 -93.267189 4504.884766 276.644806 0.001660 0.001660 0.001660 4514.334961
50 -85.748611 4644.395020 251.495239 0.001660 0.001660 0.001660 4651.989258
[root]
49 19.949492 163.507935 1023.203613 -93.201576 -36.664356 -88.931335 1036.377563
50 28.256277 28.136349 983.872559 -92.047012 -36.245430 -89.682037 984.680298
[chest]
49 -84.512650 -34.090519 0.000000 4.681302 -13.506584 129.207626 91.129311
50 -84.512650 -34.090519 0.000000 4.305568 -12.174144 131.660965 91.129311
[L_mid_tent01]
49 27.299179 22.178984 -249.918701 -17.008686 22.722250 30.360329 252.381683
50 27.299181 22.178982 -249.918701 -17.493286 21.799208 28.700386 252.381683
[R_mid_tent01]
49 23.228794 24.509907 226.238495 -171.832535 -24.162455 36.027653 228.744751
50 23.228794 24.509907 226.238495 -171.160568 -23.654554 34.887100 228.744751
[spine01]
49 -0.361383 -0.195265 0.000000 -0.000001 -0.000007 22.052340 0.410763
50 -0.361383 -0.195265 0.000000 -0.000001 -0.000007 22.052340 0.410763
[Bip01_Neck]
49 165.484543 71.581718 0.000119 176.643677 -1.657967 43.431911 180.302734
50 165.484543 71.581718 0.000119 176.643677 -1.657967 43.431911 180.302734
[L_humerus]
49 -13.983130 -135.272980 -120.471481 8.194047 78.355484 98.497040 181.680161
50 -13.983130 -135.272980 -120.471481 6.171021 77.724327 96.464050 181.680161
[R_humerus]
49 -13.983309 -135.273102 125.287651 31.419054 -80.965996 63.869850 184.909012
50 -13.983309 -135.273102 125.287651 31.337885 -80.116783 63.989094 184.909012
[weapon_bone]
49 235.964890 -300.705902 0.000000 0.000000 -89.951546 -128.212341 382.234833
50 235.964890 -300.705902 0.000000 0.000000 -89.951546 -128.212341 382.234833
[Bip01_Head]
49 203.285995 162.408524 31.616488 4.962490 2.797846 -43.898743 262.109375
50 203.286011 162.408524 31.616489 4.962490 2.797845 -43.898743 262.109375
[eye_left_bone]
49 -24.626970 125.451866 -64.772606 0.000000 -90.000000 -99.840431 143.318359
50 -24.626970 125.451866 -64.772606 0.000000 -90.000000 -99.840431 143.318359
[eye_right_bone]
49 -24.626970 125.451866 64.327362 0.000000 -89.965736 80.156380 143.117676
50 -24.626970 125.451866 64.327362 0.000000 -89.965736 80.156380 143.117676
[L_forearm]
49 322.776093 0.000000 -0.000119 0.000756 0.002222 -52.421791 322.776093
50 322.776093 0.000000 -0.000119 0.000849 0.002188 -47.608360 322.776093
[L_front_hand]
49 241.149185 -0.042021 -3.300071 0.836591 -1.835726 -27.423458 241.171753
50 241.149185 -0.042021 -3.300071 0.836591 -1.835726 -27.423458 241.171753
[L_weapon_bone]
49 156.183838 0.000000 0.000000 0.000014 0.000007 0.000001 156.183838
50 156.183838 0.000000 0.000000 0.000014 0.000007 0.000001 156.183838
[L_front_hand01_01]
49 86.095154 20.947098 -0.655860 -0.366594 -0.477154 75.385574 88.609184
50 86.095154 20.947098 -0.655860 -0.366594 -0.477154 75.385574 88.609184
[L_front_hand02_01]
49 86.935165 -11.437475 24.513514 154.399796 -59.883835 -61.369587 91.046425
50 86.935165 -11.437475 24.513514 154.399796 -59.883835 -61.369587 91.046425
[L_front_hand03_01]
49 86.637497 -14.123976 -20.424902 -153.913849 58.118122 -62.702866 90.126129
50 86.637497 -14.123976 -20.424902 -153.913849 58.118130 -62.702866 90.126129
[L_front_hand01_02]
49 71.020905 -0.000179 0.000030 0.000334 -0.002323 -106.379684 71.020905
50 71.020905 -0.000179 0.000030 0.000334 -0.002323 -106.379684 71.020905
[L_front_hand02_02]
49 71.020927 -0.000119 0.000060 0.000334 -0.002323 -106.379684 71.020927
50 71.020927 -0.000119 0.000060 0.000334 -0.002323 -106.379684 71.020927
[L_front_hand03_02]
49 71.020905 -0.000060 0.000060 0.000334 -0.002323 -106.379684 71.020905
50 71.020905 -0.000060 0.000060 0.000334 -0.002323 -106.379684 71.020905
[R_forearm]
49 322.776428 -0.000060 0.000030 0.153299 -0.146658 -47.770592 322.776428
50 322.776428 -0.000060 0.000030 0.143726 -0.159819 -42.606445 322.776428
[R_front_hand]
49 238.847015 -0.006795 2.210259 42.936222 -10.646152 -26.312963 238.857239
50 238.847015 -0.006795 2.210259 42.936222 -10.646152 -26.312963 238.857239
[R_weapon_bone]
49 155.664093 0.002503 -0.000030 0.003487 0.001180 -90.988930 155.664078
50 155.664093 0.002503 -0.000030 0.003487 0.001180 -90.988930 155.664078
[R_front_hand01_01]
49 87.624611 14.231146 22.918642 -154.633499 -59.950619 61.746044 91.683487
50 87.624611 14.231146 22.918642 -154.633484 -59.950619 61.746037 91.683487
[R_front_hand02_01]
49 89.356956 14.367283 -19.491137 154.602661 58.302849 63.744389 92.579636
50 89.356956 14.367283 -19.491137 154.602661 58.302849 63.744389 92.579636
[R_front_hand03_01]
49 87.286232 -22.307278 -0.143439 0.162155 -0.423168 -75.767921 90.091743
50 87.286232 -22.307278 -0.143439 0.162155 -0.423168 -75.767906 90.091743
[R_front_hand01_02]
49 71.020905 0.000060 0.000119 0.002323 -0.000334 106.381714 71.020905
50 71.020905 0.000060 0.000119 0.002323 -0.000334 106.381714 71.020905
[R_front_hand02_02]
49 71.020844 -0.000030 -0.000119 0.002323 -0.000334 106.381714 71.020836
50 71.020844 -0.000030 -0.000119 0.002323 -0.000334 106.381714 71.020836
[R_front_hand03_02]
49 71.020905 0.000000 0.000030 0.002323 -0.000334 106.381714 71.020905
50 71.020905 0.000000 0.000030 0.002323 -0.000334 106.381714 71.020905
[null_rope01_connect]
49 328.732483 0.000000 -0.000238 -125.054878 -59.763611 -141.632111 328.732483
50 328.732483 0.000000 -0.000238 -124.397568 -60.659485 -141.235596 328.732483
[Rope1_Seg01]
49 0.000014 -0.000504 0.000000 -13.944335 29.546373 163.587967 0.000504
50 0.000013 -0.000513 0.000000 -11.260327 22.824146 170.038422 0.000514
[Rope1_Seg02]
49 139.999863 -0.000179 0.000000 1.789972 7.677455 16.171808 139.999863
50 139.999863 -0.000179 0.000000 6.106424 15.735078 18.332800 139.999863
[Rope1_Seg03]
49 139.999924 0.000060 -0.000060 2.356250 5.310985 12.076975 139.999924
50 139.999924 0.000060 -0.000060 3.066375 9.844364 9.422391 139.999924
[Rope1_Seg04]
49 139.999924 -0.000060 -0.000119 1.719929 3.010156 6.908758 139.999924
50 139.999924 -0.000060 -0.000119 1.269036 4.994262 4.295716 139.999924
[Rope1_Seg05]
49 139.999832 0.000119 -0.000060 4.601695 8.390160 11.244411 139.999832
50 139.999832 0.000119 -0.000060 1.308892 4.705379 4.803952 139.999832
[Rope1_Seg06]
49 139.999954 0.000119 -0.000060 11.329165 17.994350 20.147757 139.999954
50 139.999954 0.000119 -0.000060 3.001946 8.682683 9.473052 139.999954
[Rope1_Seg07]
49 139.999985 0.000060 0.000000 6.658361 13.886733 11.754316 139.999985
50 139.999985 0.000060 0.000000 4.160125 11.312086 11.291367 139.999985
[Rope1_Seg09]
49 121.602913 0.000119 -0.000089 -89.793175 -1.359789 0.847147 121.602913
50 121.602913 0.000119 -0.000089 -89.793175 -1.359789 0.847147 121.602913
[L_mid_hand01]
49 103.859421 1.038730 8.195221 130.544373 -67.584534 -38.866943 104.187431
50 103.859421 1.038730 8.195221 130.544373 -67.584534 -38.866943 104.187431
[L_mid_hand02]
49 105.572853 -4.139662 -10.864139 -168.923172 43.409309 -73.498886 106.211075
50 105.572853 -4.139662 -10.864139 -168.923172 43.409309 -73.498886 106.211075
[L_mid_hand03]
49 104.641464 17.579376 -3.913581 -6.012627 17.808174 74.893669 106.179977
50 104.641464 17.579376 -3.913581 -6.012627 17.808174 74.893669 106.179977
[null_rope02_connect]
49 328.732849 0.000179 -0.000119 -103.803772 66.099594 -12.224607 328.732849
50 328.732849 0.000179 -0.000119 -107.010948 66.207825 -16.239994 328.732849
[Rope2_Seg01]
49 0.000095 0.000518 0.000000 80.676697 21.160807 10.899179 0.000527
50 0.000095 0.000526 0.000000 81.671669 14.979120 8.039052 0.000535
[Rope2_Seg02]
49 139.999741 -0.000060 -0.000119 -4.245109 -4.649047 -9.158179 139.999756
50 139.999741 -0.000060 -0.000119 -7.522716 -5.660442 -13.610009 139.999756
[Rope2_Seg03]
49 140.000107 0.000030 0.000000 -6.099634 -5.945658 -14.611602 140.000107
50 140.000107 0.000030 0.000000 -9.233737 -5.407082 -21.223455 140.000107
[Rope2_Seg04]
49 139.999802 0.000000 -0.000060 -7.474898 -5.943564 -24.281818 139.999802
50 139.999802 0.000000 -0.000060 -7.563676 -1.707752 -29.023458 139.999802
[Rope2_Seg05]
49 139.999985 -0.000060 0.000119 -4.206733 -1.959726 -21.722387 139.999985
50 139.999985 -0.000060 0.000119 -1.719211 1.016780 -15.059177 139.999985
[Rope2_Seg06]
49 139.999893 -0.000030 -0.000119 -0.727035 -1.698050 -4.945255 139.999893
50 139.999893 -0.000030 -0.000119 -0.133466 -0.559232 -1.703991 139.999893
[Rope2_Seg07]
49 139.999893 0.000060 -0.000060 0.275275 -3.433813 4.249643 139.999893
50 139.999893 0.000060 -0.000060 0.252392 -2.156567 6.148477 139.999893
[Rope2_Seg09]
49 121.338966 0.000089 -0.000060 33.793236 -1.359788 -0.847141 121.338966
50 121.338966 0.000089 -0.000060 33.793236 -1.359788 -0.847141 121.338966
[R_mid_hand01]
49 104.680779 11.144459 -10.335981 -16.212063 45.237247 70.462852 105.778534
50 104.680779 11.144459 -10.335981 -16.212063 45.237247 70.462852 105.778534
[R_mid_hand02]
49 104.070427 2.443552 8.231699 49.067368 -67.749771 39.286453 104.424065
50 104.070427 2.443552 8.231699 49.067368 -67.749771 39.286453 104.424065
[R_mid_hand03]
49 106.028137 -11.221827 -5.996406 -177.101105 15.551026 -76.585571 106.788818
50 106.028137 -11.221827 -5.996406 -177.101105 15.551026 -76.585571 106.788818
[spine02]
49 129.756927 0.001550 0.000119 0.393139 -4.041396 -13.434310 129.756927
50 129.756927 0.001550 0.000119 0.387773 -4.041965 -13.351908 129.756927
[spine03]
49 78.613922 0.081759 -4.898991 1.919491 3.820118 16.797720 78.766457
50 78.613922 0.081761 -4.898990 1.916141 3.822156 16.751627 78.766457
[pelvis]
49 169.435242 0.051022 0.000000 -0.061497 -0.179876 14.744736 169.435257
50 169.435242 0.051022 0.000000 -0.061327 -0.179934 14.636255 169.435257
[null_rope03_connect]
49 -1.257226 -2.466202 137.391083 -169.754654 -88.427902 -103.702812 137.418976
50 -1.257226 -2.466202 137.391083 -151.041367 -89.282906 -122.782555 137.418976
[null_rope04_connect]
49 -1.259640 -2.480268 -137.844437 -169.754654 -88.427902 -103.702812 137.872513
50 -1.259640 -2.480268 -137.844437 -151.041367 -89.282906 -122.782555 137.872513
[Rope3_Seg01]
49 0.000000 0.000000 0.000000 -64.299377 -81.843369 20.005985 0.000000
50 0.000000 0.000000 0.000000 0.700169 -80.823006 -47.150887 0.000000
[Rope3_Seg02]
49 139.999924 -0.000119 0.000060 -0.774586 25.209087 -1.159708 139.999924
50 139.999924 -0.000119 0.000060 -0.831479 27.330109 1.367407 139.999924
[Rope3_Seg03]
49 139.999924 -0.000119 0.000119 4.709084 24.689131 1.007512 139.999924
50 139.999924 -0.000119 0.000119 3.932728 21.946007 0.991354 139.999924
[Rope3_Seg04]
49 139.999924 0.000119 0.000000 4.283400 12.399405 -2.599681 139.999924
50 139.999924 0.000119 0.000000 1.662191 5.912499 0.508585 139.999924
[Rope3_Seg05]
49 139.999924 -0.000238 0.000060 4.383856 9.240084 -9.731477 139.999924
50 139.999924 -0.000238 0.000060 -1.488271 -3.493849 2.115754 139.999924
[Rope3_Seg06]
49 139.999893 -0.000119 -0.000060 4.221987 11.661595 -12.663790 139.999893
50 139.999893 -0.000119 -0.000060 -0.697111 -1.830097 2.238911 139.999893
[Rope3_Seg07]
49 139.999771 0.000060 -0.000119 2.621856 8.613197 -10.417363 139.999771
50 139.999771 0.000060 -0.000119 -0.307116 -0.917843 2.106284 139.999771
[Rope3_Seg08]
49 139.999985 -0.000060 0.000000 1.162219 2.550431 -3.445811 139.999985
50 139.999985 -0.000060 0.000000 0.186654 -0.385620 0.866583 139.999985
[Rope3_Seg09]
49 90.185997 -0.000179 -0.000060 89.793228 -1.359877 -0.847183 90.185997
50 90.185997 -0.000179 -0.000060 89.793228 -1.359877 -0.847183 90.185997
[R_rear_hand01]
49 103.366196 -6.073594 -10.757982 -177.714203 24.565960 -73.910950 104.101845
50 103.366196 -6.073594 -10.757982 -177.714203 24.565960 -73.910950 104.101845
[R_rear_hand02]
49 100.509819 12.039542 -7.992327 -12.874829 36.868488 72.167213 101.543350
50 100.509819 12.039542 -7.992327 -12.874829 36.868488 72.167213 101.543350
[R_rear_hand03]
49 101.539970 5.215704 5.435467 71.484581 -71.816628 21.513813 101.819031
50 101.539970 5.215704 5.435467 71.484581 -71.816628 21.513813 101.819031
[Rope4_Seg01]
49 0.000010 0.000038 -0.000114 -29.232254 -28.940779 170.970398 0.000121
50 0.000010 0.000038 -0.000114 -41.971016 -24.930487 179.743851 0.000121
[Rope4_Seg02]
49 139.999985 0.000060 0.000119 -20.918560 0.756465 19.736914 139.999985
50 139.999985 0.000060 0.000119 -20.289726 -4.486147 17.353886 139.999985
[Rope4_Seg03]
49 139.999924 0.000000 -0.000238 -12.922356 -4.531011 9.635125 139.999924
50 139.999924 0.000000 -0.000238 -8.800944 -9.043640 5.870484 139.999924
[Rope4_Seg04]
49 139.999985 0.000000 0.000119 -9.751421 -4.062446 7.465251 139.999985
50 139.999985 0.000000 0.000119 -4.629043 -2.656823 4.704828 139.999985
[Rope4_Seg05]
49 139.999802 -0.000060 -0.000119 -14.685616 -5.877386 11.951898 139.999802
50 139.999802 -0.000060 -0.000119 -7.403460 3.830756 10.161601 139.999802
[Rope4_Seg06]
49 139.999924 0.000000 0.000060 -11.676457 -7.873400 9.596940 139.999924
50 139.999924 0.000000 0.000060 -13.087477 3.958655 12.696358 139.999924
[Rope4_Seg07]
49 139.999802 0.000000 0.000000 -5.723816 -6.272416 4.834699 139.999802
50 139.999802 0.000000 0.000000 -11.948757 -0.310885 8.335997 139.999802
[Rope4_Seg08]
49 139.999924 0.000000 0.000119 -4.539989 -4.269800 2.677480 139.999924
50 139.999924 0.000000 0.000119 -10.447052 -1.367092 5.472765 139.999924
[Rope4_Seg09]
49 90.185791 0.000060 0.000060 -135.617828 2.228885 0.850567 90.185791
50 90.185791 0.000060 0.000060 -135.617828 2.228885 0.850567 90.185791
[L_rear_hand01]
49 101.696655 -8.392275 -7.654577 -12.874829 -36.868488 107.832764 102.329041
50 101.696655 -8.392275 -7.654577 -12.874829 -36.868488 107.832764 102.329041
[L_rear_hand02]
49 102.726799 -1.568258 5.773216 71.484581 71.816628 158.486160 102.900848
50 102.726799 -1.568258 5.773216 71.484581 71.816628 158.486160 102.900848
[L_rear_hand03]
49 104.552910 9.721220 -10.420293 -177.714203 -24.565960 -106.089035 105.519653
50 104.552910 9.721220 -10.420293 -177.714203 -24.565960 -106.089035 105.519653
